<svg enable-background="new 0 0 512 512" height="512" viewBox="0 0 512 512" width="512"
     xmlns="http://www.w3.org/2000/svg">
    <path d="m491.187 415.219h10.511c5.69 0 10.302 4.612 10.302 10.302v12.592c0 22.989-18.637 41.626-41.626 41.626h-214.374-214.374c-22.989.001-41.626-18.636-41.626-41.625v-12.592c0-5.69 4.612-10.302 10.302-10.302h10.511 470.374z"
          fill="#665e66"/>
    <path d="m491.187 415.219v22.894c0 22.989-18.637 41.626-41.626 41.626h20.813c22.989 0 41.626-18.637 41.626-41.626v-12.592c0-5.69-4.612-10.302-10.302-10.302z"
          fill="#544f57"/>
    <path d="m491.187 415.219h-470.374v-362.959c0-11.046 8.954-20 20-20h430.374c11.046 0 20 8.954 20 20z"
          fill="#665e66"/>
    <path d="m474.174 32.623c.228 1.234.363 2.5.363 3.8v351.74c0 5.747-4.659 10.407-10.406 10.407h-443.318v16.65h470.374v-362.147c0-10.195-7.335-18.662-17.013-20.45z"
          fill="#544f57"/>
    <path d="m52.033 374v-300.52c0-5.523 4.477-10 10-10h387.935c5.523 0 10 4.477 10 10v300.52c0 5.523-4.477 10-10 10h-387.935c-5.523 0-10-4.477-10-10z"
          fill="#90d8f9"/>
    <g fill="#665e66">
        <path d="m102.97 143.997c-1.977 0-3.955-.755-5.463-2.263l-19.718-19.717c-1.45-1.45-2.264-3.414-2.264-5.464s.814-4.014 2.263-5.464l19.718-19.718c3.018-3.016 7.909-3.016 10.928 0 3.017 3.018 3.017 7.909 0 10.928l-14.256 14.255 14.255 14.254c3.018 3.017 3.018 7.909.001 10.927-1.509 1.507-3.487 2.262-5.464 2.262z"/>
        <path d="m130.198 143.999c-.571 0-1.152-.064-1.733-.197-4.159-.953-6.758-5.098-5.805-9.258l9.037-39.436c.953-4.16 5.092-6.757 9.258-5.805 4.159.953 6.758 5.098 5.805 9.258l-9.037 39.436c-.821 3.578-4.004 6.002-7.525 6.002z"/>
        <path d="m166.558 143.997c-1.978 0-3.955-.755-5.464-2.264-3.017-3.017-3.017-7.909.001-10.927l14.255-14.254-14.256-14.255c-3.017-3.018-3.017-7.909 0-10.928 3.018-3.016 7.909-3.016 10.928 0l19.718 19.718c1.449 1.45 2.263 3.414 2.263 5.464s-.814 4.014-2.264 5.464l-19.718 19.717c-1.508 1.51-3.486 2.265-5.463 2.265z"/>
    </g>
    <path d="m124.878 187.759h-41.626c-4.268 0-7.726-3.459-7.726-7.726 0-4.268 3.459-7.726 7.726-7.726h41.627c4.268 0 7.726 3.459 7.726 7.726s-3.459 7.726-7.727 7.726z"
          fill="#e27a66"/>
    <path d="m345.496 187.759h-189.398c-4.268 0-7.726-3.459-7.726-7.726 0-4.268 3.459-7.726 7.726-7.726h189.398c4.268 0 7.726 3.459 7.726 7.726s-3.458 7.726-7.726 7.726z"
          fill="#f4dd45"/>
    <path d="m387.122 187.759h-10.406c-4.268 0-7.726-3.459-7.726-7.726 0-4.268 3.459-7.726 7.726-7.726h10.406c4.268 0 7.726 3.459 7.726 7.726s-3.459 7.726-7.726 7.726z"
          fill="#e27a66"/>
    <path d="m145.691 229.385h-31.219c-4.268 0-7.726-3.459-7.726-7.726 0-4.268 3.459-7.726 7.726-7.726h31.219c4.268 0 7.726 3.459 7.726 7.726.001 4.268-3.458 7.726-7.726 7.726z"
          fill="#e27a66"/>
    <path d="m314.277 229.385h-137.367c-4.268 0-7.726-3.459-7.726-7.726 0-4.268 3.459-7.726 7.726-7.726h137.366c4.268 0 7.726 3.459 7.726 7.726.001 4.268-3.458 7.726-7.725 7.726z"
          fill="#f4dd45"/>
    <path d="m366.309 229.385h-20.813c-4.268 0-7.726-3.459-7.726-7.726 0-4.268 3.459-7.726 7.726-7.726h20.813c4.268 0 7.726 3.459 7.726 7.726 0 4.268-3.459 7.726-7.726 7.726z"
          fill="#aad540"/>
    <path d="m428.748 229.385h-31.22c-4.268 0-7.726-3.459-7.726-7.726 0-4.268 3.459-7.726 7.726-7.726h31.22c4.268 0 7.726 3.459 7.726 7.726.001 4.268-3.458 7.726-7.726 7.726z"
          fill="#e27a66"/>
    <path d="m145.691 271.011h-31.219c-4.268 0-7.726-3.459-7.726-7.726s3.459-7.726 7.726-7.726h31.219c4.268 0 7.726 3.459 7.726 7.726s-3.458 7.726-7.726 7.726z"
          fill="#e27a66"/>
    <path d="m314.277 271.011h-137.367c-4.268 0-7.726-3.459-7.726-7.726s3.459-7.726 7.726-7.726h137.366c4.268 0 7.726 3.459 7.726 7.726s-3.458 7.726-7.725 7.726z"
          fill="#f4dd45"/>
    <path d="m366.309 271.011h-20.813c-4.268 0-7.726-3.459-7.726-7.726s3.459-7.726 7.726-7.726h20.813c4.268 0 7.726 3.459 7.726 7.726s-3.459 7.726-7.726 7.726z"
          fill="#aad540"/>
    <path d="m428.748 271.011h-31.22c-4.268 0-7.726-3.459-7.726-7.726s3.459-7.726 7.726-7.726h31.22c4.268 0 7.726 3.459 7.726 7.726s-3.458 7.726-7.726 7.726z"
          fill="#e27a66"/>
    <path d="m124.878 312.637h-41.626c-4.268 0-7.726-3.459-7.726-7.726s3.459-7.726 7.726-7.726h41.627c4.268 0 7.726 3.459 7.726 7.726s-3.459 7.726-7.727 7.726z"
          fill="#e27a66"/>
    <path d="m345.496 312.637h-189.398c-4.268 0-7.726-3.459-7.726-7.726s3.459-7.726 7.726-7.726h189.398c4.268 0 7.726 3.459 7.726 7.726s-3.458 7.726-7.726 7.726z"
          fill="#f4dd45"/>
    <path d="m387.122 312.637h-10.406c-4.268 0-7.726-3.459-7.726-7.726s3.459-7.726 7.726-7.726h10.406c4.268 0 7.726 3.459 7.726 7.726s-3.459 7.726-7.726 7.726z"
          fill="#e27a66"/>
    <path d="m145.691 354.263h-31.219c-4.268 0-7.726-3.459-7.726-7.726s3.459-7.726 7.726-7.726h31.219c4.268 0 7.726 3.459 7.726 7.726s-3.458 7.726-7.726 7.726z"
          fill="#e27a66"/>
    <path d="m314.277 354.263h-137.367c-4.268 0-7.726-3.459-7.726-7.726s3.459-7.726 7.726-7.726h137.366c4.268 0 7.726 3.459 7.726 7.726s-3.458 7.726-7.725 7.726z"
          fill="#f4dd45"/>
    <path d="m366.309 354.263h-20.813c-4.268 0-7.726-3.459-7.726-7.726s3.459-7.726 7.726-7.726h20.813c4.268 0 7.726 3.459 7.726 7.726s-3.459 7.726-7.726 7.726z"
          fill="#aad540"/>
    <path d="m428.748 354.263h-31.22c-4.268 0-7.726-3.459-7.726-7.726s3.459-7.726 7.726-7.726h31.22c4.268 0 7.726 3.459 7.726 7.726s-3.458 7.726-7.726 7.726z"
          fill="#e27a66"/>
</svg>